<mxfile host="app.diagrams.net" agent="Mozilla/5.0 (Windows NT 10.0; Win64; x64) AppleWebKit/537.36 (KHTML, like Gecko) Chrome/131.0.0.0 Safari/537.36 Edg/131.0.0.0" version="26.0.6">
  <diagram name="第 1 页" id="Dq6Lps-M6JQKtfp268AX">
    <mxGraphModel dx="2893" dy="1149" grid="1" gridSize="10" guides="1" tooltips="1" connect="1" arrows="1" fold="1" page="1" pageScale="1" pageWidth="827" pageHeight="1169" math="0" shadow="0">
      <root>
        <mxCell id="0" />
        <mxCell id="1" parent="0" />
        <mxCell id="OkDgl0dUBWGQh2s2AeRR-3" value="" style="shape=cube;whiteSpace=wrap;html=1;boundedLbl=1;backgroundOutline=1;darkOpacity=0.05;darkOpacity2=0.1;size=40;direction=east;flipV=0;flipH=1;fillColor=#ffe6cc;strokeColor=#d79b00;" parent="1" vertex="1">
          <mxGeometry x="-250" y="120" width="50" height="390" as="geometry" />
        </mxCell>
        <mxCell id="OkDgl0dUBWGQh2s2AeRR-4" value="" style="shape=cube;whiteSpace=wrap;html=1;boundedLbl=1;backgroundOutline=1;darkOpacity=0.05;darkOpacity2=0.1;size=40;flipH=1;fillColor=#d4fce5;strokeColor=#6c8ebf;" parent="1" vertex="1">
          <mxGeometry x="-100" y="268" width="70" height="240" as="geometry" />
        </mxCell>
        <mxCell id="OkDgl0dUBWGQh2s2AeRR-5" value="" style="shape=cube;whiteSpace=wrap;html=1;boundedLbl=1;backgroundOutline=1;darkOpacity=0.05;darkOpacity2=0.1;size=40;flipH=1;fillColor=#d5e8d4;strokeColor=#82b366;" parent="1" vertex="1">
          <mxGeometry x="-47" y="268" width="50" height="240" as="geometry" />
        </mxCell>
        <mxCell id="OkDgl0dUBWGQh2s2AeRR-6" value="&lt;font style=&quot;font-size: 48px;&quot;&gt;……&lt;/font&gt;" style="text;html=1;align=center;verticalAlign=middle;whiteSpace=wrap;rounded=0;" parent="1" vertex="1">
          <mxGeometry x="120" y="403" width="60" height="30" as="geometry" />
        </mxCell>
        <mxCell id="OkDgl0dUBWGQh2s2AeRR-7" value="" style="shape=cube;whiteSpace=wrap;html=1;boundedLbl=1;backgroundOutline=1;darkOpacity=0.05;darkOpacity2=0.1;size=40;flipH=1;fillColor=#d4fce5;strokeColor=#6c8ebf;" parent="1" vertex="1">
          <mxGeometry x="210" y="352.5" width="70" height="157.5" as="geometry" />
        </mxCell>
        <mxCell id="OkDgl0dUBWGQh2s2AeRR-8" value="" style="shape=cube;whiteSpace=wrap;html=1;boundedLbl=1;backgroundOutline=1;darkOpacity=0.05;darkOpacity2=0.1;size=40;flipH=1;fillColor=#d5e8d4;strokeColor=#82b366;" parent="1" vertex="1">
          <mxGeometry x="258" y="353" width="50" height="157.5" as="geometry" />
        </mxCell>
        <mxCell id="OkDgl0dUBWGQh2s2AeRR-9" value="" style="shape=cube;whiteSpace=wrap;html=1;boundedLbl=1;backgroundOutline=1;darkOpacity=0.05;darkOpacity2=0.1;size=10;flipH=1;fillColor=#f8cecc;strokeColor=#b85450;" parent="1" vertex="1">
          <mxGeometry x="413.5" y="420" width="90" height="30" as="geometry" />
        </mxCell>
        <mxCell id="OkDgl0dUBWGQh2s2AeRR-12" value="" style="shape=cube;whiteSpace=wrap;html=1;boundedLbl=1;backgroundOutline=1;darkOpacity=0.05;darkOpacity2=0.1;size=40;flipH=1;fillColor=#dae8fc;strokeColor=#6c8ebf;" parent="1" vertex="1">
          <mxGeometry x="600" y="350.5" width="50" height="157.5" as="geometry" />
        </mxCell>
        <mxCell id="OkDgl0dUBWGQh2s2AeRR-13" value="" style="shape=step;perimeter=stepPerimeter;whiteSpace=wrap;html=1;fixedSize=1;fillColor=#fff2cc;strokeColor=#d6b656;" parent="1" vertex="1">
          <mxGeometry x="-180" y="393" width="60" height="80" as="geometry" />
        </mxCell>
        <mxCell id="OkDgl0dUBWGQh2s2AeRR-14" value="" style="shape=step;perimeter=stepPerimeter;whiteSpace=wrap;html=1;fixedSize=1;fillColor=#fff2cc;strokeColor=#d6b656;" parent="1" vertex="1">
          <mxGeometry x="26" y="393" width="60" height="80" as="geometry" />
        </mxCell>
        <mxCell id="OkDgl0dUBWGQh2s2AeRR-15" value="" style="shape=step;perimeter=stepPerimeter;whiteSpace=wrap;html=1;fixedSize=1;fillColor=#fff2cc;strokeColor=#d6b656;" parent="1" vertex="1">
          <mxGeometry x="330" y="393" width="60" height="80" as="geometry" />
        </mxCell>
        <mxCell id="OkDgl0dUBWGQh2s2AeRR-16" value="" style="shape=step;perimeter=stepPerimeter;whiteSpace=wrap;html=1;fixedSize=1;fillColor=#fff2cc;strokeColor=#d6b656;" parent="1" vertex="1">
          <mxGeometry x="530" y="389.25" width="60" height="80" as="geometry" />
        </mxCell>
        <mxCell id="OkDgl0dUBWGQh2s2AeRR-17" value="" style="shape=cube;whiteSpace=wrap;html=1;boundedLbl=1;backgroundOutline=1;darkOpacity=0.05;darkOpacity2=0.1;size=50;flipH=1;fillColor=#dae8fc;strokeColor=#6c8ebf;" parent="1" vertex="1">
          <mxGeometry x="733" y="310" width="87" height="200" as="geometry" />
        </mxCell>
        <mxCell id="OkDgl0dUBWGQh2s2AeRR-18" value="" style="shape=cube;whiteSpace=wrap;html=1;boundedLbl=1;backgroundOutline=1;darkOpacity=0.05;darkOpacity2=0.1;size=40;flipH=1;strokeColor=#6c8ebf;fillColor=#dae8fc;" parent="1" vertex="1">
          <mxGeometry x="930" y="220" width="120" height="290" as="geometry" />
        </mxCell>
        <mxCell id="OkDgl0dUBWGQh2s2AeRR-19" value="" style="shape=cube;whiteSpace=wrap;html=1;boundedLbl=1;backgroundOutline=1;darkOpacity=0.05;darkOpacity2=0.1;size=40;direction=east;flipV=0;flipH=1;fillColor=#ffe6cc;strokeColor=#d79b00;" parent="1" vertex="1">
          <mxGeometry x="1140" y="120" width="50" height="390" as="geometry" />
        </mxCell>
        <mxCell id="OkDgl0dUBWGQh2s2AeRR-22" value="" style="shape=step;perimeter=stepPerimeter;whiteSpace=wrap;html=1;fixedSize=1;fillColor=#fff2cc;strokeColor=#d6b656;" parent="1" vertex="1">
          <mxGeometry x="660" y="389.25" width="60" height="80" as="geometry" />
        </mxCell>
        <mxCell id="OkDgl0dUBWGQh2s2AeRR-25" value="" style="shape=step;perimeter=stepPerimeter;whiteSpace=wrap;html=1;fixedSize=1;fillColor=#fff2cc;strokeColor=#d6b656;" parent="1" vertex="1">
          <mxGeometry x="842" y="393" width="60" height="80" as="geometry" />
        </mxCell>
        <mxCell id="OkDgl0dUBWGQh2s2AeRR-26" value="" style="shape=step;perimeter=stepPerimeter;whiteSpace=wrap;html=1;fixedSize=1;fillColor=#fff2cc;strokeColor=#d6b656;" parent="1" vertex="1">
          <mxGeometry x="1064" y="389.25" width="60" height="80" as="geometry" />
        </mxCell>
        <mxCell id="OkDgl0dUBWGQh2s2AeRR-35" value="&lt;font face=&quot;Times New Roman&quot;&gt;&lt;span style=&quot;text-align: left;&quot;&gt;Input&lt;/span&gt;&lt;span style=&quot;text-align: left;&quot;&gt; layer&lt;/span&gt;&lt;/font&gt;" style="text;html=1;align=center;verticalAlign=middle;whiteSpace=wrap;rounded=0;fillColor=none;fontSize=35;" parent="1" vertex="1">
          <mxGeometry x="-310" y="40" width="180" height="90" as="geometry" />
        </mxCell>
        <mxCell id="OkDgl0dUBWGQh2s2AeRR-47" value="" style="group;fontSize=35;" parent="1" vertex="1" connectable="0">
          <mxGeometry x="190" y="60" width="490" height="240" as="geometry" />
        </mxCell>
        <mxCell id="OkDgl0dUBWGQh2s2AeRR-32" value="" style="rounded=1;whiteSpace=wrap;html=1;fillColor=none;fontSize=35;" parent="OkDgl0dUBWGQh2s2AeRR-47" vertex="1">
          <mxGeometry x="28" width="490" height="240" as="geometry" />
        </mxCell>
        <mxCell id="OkDgl0dUBWGQh2s2AeRR-36" value="" style="shape=cube;whiteSpace=wrap;html=1;boundedLbl=1;backgroundOutline=1;darkOpacity=0.05;darkOpacity2=0.1;size=10;flipH=1;fillColor=#d4fce5;strokeColor=#6c8ebf;fontSize=35;" parent="OkDgl0dUBWGQh2s2AeRR-47" vertex="1">
          <mxGeometry x="99" y="35" width="38" height="20" as="geometry" />
        </mxCell>
        <mxCell id="OkDgl0dUBWGQh2s2AeRR-38" value="" style="shape=cube;whiteSpace=wrap;html=1;boundedLbl=1;backgroundOutline=1;darkOpacity=0.05;darkOpacity2=0.1;size=10;flipH=1;fillColor=#d5e8d4;strokeColor=#82b366;fontSize=35;" parent="OkDgl0dUBWGQh2s2AeRR-47" vertex="1">
          <mxGeometry x="100" y="80" width="38" height="20" as="geometry" />
        </mxCell>
        <mxCell id="OkDgl0dUBWGQh2s2AeRR-39" value="" style="shape=cube;whiteSpace=wrap;html=1;boundedLbl=1;backgroundOutline=1;darkOpacity=0.05;darkOpacity2=0.1;size=10;flipH=1;fillColor=#f8cecc;strokeColor=#b85450;fontSize=35;" parent="OkDgl0dUBWGQh2s2AeRR-47" vertex="1">
          <mxGeometry x="99" y="125" width="38" height="20" as="geometry" />
        </mxCell>
        <mxCell id="OkDgl0dUBWGQh2s2AeRR-40" value="" style="shape=cube;whiteSpace=wrap;html=1;boundedLbl=1;backgroundOutline=1;darkOpacity=0.05;darkOpacity2=0.1;size=10;flipH=1;fillColor=#dae8fc;strokeColor=#6c8ebf;fontSize=35;" parent="OkDgl0dUBWGQh2s2AeRR-47" vertex="1">
          <mxGeometry x="98" y="172" width="38" height="20" as="geometry" />
        </mxCell>
        <mxCell id="OkDgl0dUBWGQh2s2AeRR-41" value="&lt;span style=&quot;text-align: left; background-color: rgb(255, 255, 255);&quot;&gt;&lt;font face=&quot;Times New Roman&quot;&gt;Convolutional Layer&lt;/font&gt;&lt;/span&gt;" style="text;html=1;align=center;verticalAlign=middle;whiteSpace=wrap;rounded=0;fontSize=35;" parent="OkDgl0dUBWGQh2s2AeRR-47" vertex="1">
          <mxGeometry x="121" y="30" width="348" height="30" as="geometry" />
        </mxCell>
        <mxCell id="OkDgl0dUBWGQh2s2AeRR-42" value="&lt;span style=&quot;text-align: left; background-color: rgb(255, 255, 255);&quot;&gt;&lt;font face=&quot;Times New Roman&quot;&gt;Filled layer&lt;/font&gt;&lt;/span&gt;" style="text;html=1;align=center;verticalAlign=middle;whiteSpace=wrap;rounded=0;fontSize=35;" parent="OkDgl0dUBWGQh2s2AeRR-47" vertex="1">
          <mxGeometry x="104" y="75" width="252" height="30" as="geometry" />
        </mxCell>
        <mxCell id="OkDgl0dUBWGQh2s2AeRR-44" value="&lt;span style=&quot;text-align: start; background-color: rgb(255, 255, 255);&quot;&gt;&lt;font face=&quot;Times New Roman&quot;&gt;Average pooling layer&lt;/font&gt;&lt;/span&gt;" style="text;html=1;align=center;verticalAlign=middle;whiteSpace=wrap;rounded=0;fontSize=35;" parent="OkDgl0dUBWGQh2s2AeRR-47" vertex="1">
          <mxGeometry x="138" y="120" width="335" height="30" as="geometry" />
        </mxCell>
        <mxCell id="OkDgl0dUBWGQh2s2AeRR-45" value="&lt;span style=&quot;text-align: start; background-color: rgb(255, 255, 255);&quot;&gt;&lt;font face=&quot;Times New Roman&quot;&gt;Deconvolution layer&lt;/font&gt;&lt;/span&gt;" style="text;html=1;align=center;verticalAlign=middle;whiteSpace=wrap;rounded=0;fontSize=35;" parent="OkDgl0dUBWGQh2s2AeRR-47" vertex="1">
          <mxGeometry x="149.5" y="167" width="289" height="30" as="geometry" />
        </mxCell>
        <mxCell id="OkDgl0dUBWGQh2s2AeRR-48" value="&lt;font face=&quot;Times New Roman&quot;&gt;&lt;span style=&quot;text-align: left;&quot;&gt;Output&lt;/span&gt;&lt;span style=&quot;text-align: left;&quot;&gt; layer&lt;/span&gt;&lt;/font&gt;" style="text;html=1;align=center;verticalAlign=middle;whiteSpace=wrap;rounded=0;fillColor=none;fontSize=35;" parent="1" vertex="1">
          <mxGeometry x="1090" y="40" width="180" height="90" as="geometry" />
        </mxCell>
      </root>
    </mxGraphModel>
  </diagram>
</mxfile>
